<?xml version="1.0" encoding="utf-8"?>
<!-- Generator: Adobe Illustrator 28.2.0, SVG Export Plug-In . SVG Version: 6.00 Build 0)  -->
<svg version="1.1" id="Layer_1" xmlns="http://www.w3.org/2000/svg" xmlns:xlink="http://www.w3.org/1999/xlink" x="0px" y="0px"
	 viewBox="0 0 129.08 125.53" style="enable-background:new 0 0 129.08 125.53;" xml:space="preserve">
<style type="text/css">
	.st0{fill:none;stroke:#ED1C24;stroke-width:10;stroke-miterlimit:10;}
</style>
<path class="st0" d="M62.62,22.66L62.62,22.66c-0.1-2.8-2.4-5.02-5.2-5.02H24.06c-5.06,0-9.85,2.26-13.07,6.17l0,0
	c-2.06,2.5-3.19,5.65-3.19,8.89V100c0,4.78,1.76,9.4,4.93,12.98l0,0c2.87,3.23,6.99,5.08,11.32,5.08h70.58
	c5.21,0,10.12-2.45,13.25-6.62l0.21-0.29c2.39-3.18,3.68-7.06,3.68-11.04V73.29c0-3-2.44-5.44-5.44-5.44h0"/>
<path class="st0" d="M43.04,81.41l5.52-20l54.92-51.89c1.91-1.8,4.44-2.81,7.07-2.81h1.22c5.1,0,9.42,3.73,10.18,8.77v0
	c0.48,3.22-0.59,6.47-2.88,8.77L65.37,78.19l-22.1,3.49C43.12,81.7,43,81.56,43.04,81.41z"/>
</svg>
