<?xml version="1.0" encoding="utf-8"?>
<!-- Generator: Adobe Illustrator 28.2.0, SVG Export Plug-In . SVG Version: 6.00 Build 0)  -->
<svg version="1.1" id="Layer_1" xmlns="http://www.w3.org/2000/svg" xmlns:xlink="http://www.w3.org/1999/xlink" x="0px" y="0px"
	 viewBox="0 0 147.39 93.03" style="enable-background:new 0 0 147.39 93.03;" xml:space="preserve">
<style type="text/css">
	.st0{fill:#FFFFFF;stroke:#000000;stroke-miterlimit:10;}
</style>
<path class="st0" d="M5.08,6.91l0.67-0.67c3.14-3.14,7.4-4.9,11.84-4.9h111.86c4.61,0,9.03,1.83,12.3,5.09v0
	c2.5,2.5,3.91,5.89,3.91,9.43v3.47v57.58c0,3.47-1.38,6.8-3.83,9.25l0,0c-3.31,3.31-7.8,5.17-12.47,5.17H17.56
	c-4.42,0-8.66-1.76-11.79-4.88l0,0c-2.64-2.64-4.12-6.21-4.12-9.94V19.34V15.2C1.65,12.09,2.89,9.11,5.08,6.91z"/>
<path class="st0" d="M1.65,10.34"/>
<path class="st0" d="M2.64,10.34c47.01,0,95.01,0,141.62,0"/>
<polyline class="st0" points="37.65,19.34 10.65,19.34 10.65,37.34 "/>
<polyline class="st0" points="136.65,55.34 136.65,82.34 109.65,82.34 "/>
</svg>
